<mxfile host="Electron" modified="2024-07-03T19:11:31.192Z" agent="Mozilla/5.0 (Windows NT 10.0; Win64; x64) AppleWebKit/537.36 (KHTML, like Gecko) draw.io/24.5.3 Chrome/124.0.6367.207 Electron/30.0.6 Safari/537.36" etag="-aY9VNsH8fB_V1sqeNEA" version="24.5.3" type="device">
  <diagram id="R2lEEEUBdFMjLlhIrx00" name="Page-1">
    <mxGraphModel dx="1880" dy="1266" grid="1" gridSize="10" guides="1" tooltips="1" connect="1" arrows="1" fold="1" page="0" pageScale="1" pageWidth="850" pageHeight="1100" math="0" shadow="0" extFonts="Permanent Marker^https://fonts.googleapis.com/css?family=Permanent+Marker">
      <root>
        <mxCell id="0" />
        <mxCell id="1" parent="0" />
        <mxCell id="W849bkngyv2WaZQv473q-1" value="Customer" style="whiteSpace=wrap;html=1;align=center;" parent="1" vertex="1">
          <mxGeometry x="590" y="650" width="80" height="40" as="geometry" />
        </mxCell>
        <mxCell id="W849bkngyv2WaZQv473q-2" value="Orders" style="whiteSpace=wrap;html=1;align=center;" parent="1" vertex="1">
          <mxGeometry x="600" y="890" width="80" height="40" as="geometry" />
        </mxCell>
        <mxCell id="W849bkngyv2WaZQv473q-4" value="Resale Items" style="whiteSpace=wrap;html=1;align=center;" parent="1" vertex="1">
          <mxGeometry x="130" y="605" width="80" height="40" as="geometry" />
        </mxCell>
        <mxCell id="W849bkngyv2WaZQv473q-11" value="Name" style="ellipse;whiteSpace=wrap;html=1;align=center;" parent="1" vertex="1">
          <mxGeometry x="650" y="560" width="100" height="40" as="geometry" />
        </mxCell>
        <mxCell id="W849bkngyv2WaZQv473q-12" value="Email" style="ellipse;whiteSpace=wrap;html=1;align=center;" parent="1" vertex="1">
          <mxGeometry x="740" y="610" width="100" height="40" as="geometry" />
        </mxCell>
        <mxCell id="W849bkngyv2WaZQv473q-13" value="Customer ID" style="ellipse;whiteSpace=wrap;html=1;align=center;fontStyle=4;" parent="1" vertex="1">
          <mxGeometry x="540" y="560" width="100" height="40" as="geometry" />
        </mxCell>
        <mxCell id="W849bkngyv2WaZQv473q-14" value="PassWord" style="ellipse;whiteSpace=wrap;html=1;align=center;fontStyle=4;" parent="1" vertex="1">
          <mxGeometry x="680" y="730" width="100" height="40" as="geometry" />
        </mxCell>
        <mxCell id="W849bkngyv2WaZQv473q-15" value="UserName" style="ellipse;whiteSpace=wrap;html=1;align=center;fontStyle=4;" parent="1" vertex="1">
          <mxGeometry x="730" y="680" width="100" height="40" as="geometry" />
        </mxCell>
        <mxCell id="W849bkngyv2WaZQv473q-18" value="" style="endArrow=none;html=1;rounded=0;entryX=0.5;entryY=1;entryDx=0;entryDy=0;" parent="1" target="W849bkngyv2WaZQv473q-13" edge="1">
          <mxGeometry relative="1" as="geometry">
            <mxPoint x="590" y="650" as="sourcePoint" />
            <mxPoint x="750" y="690" as="targetPoint" />
          </mxGeometry>
        </mxCell>
        <mxCell id="W849bkngyv2WaZQv473q-19" value="1" style="resizable=0;html=1;whiteSpace=wrap;align=right;verticalAlign=bottom;" parent="W849bkngyv2WaZQv473q-18" connectable="0" vertex="1">
          <mxGeometry x="1" relative="1" as="geometry" />
        </mxCell>
        <mxCell id="W849bkngyv2WaZQv473q-31" value="" style="endArrow=none;html=1;rounded=0;exitX=0.5;exitY=0;exitDx=0;exitDy=0;" parent="1" target="W849bkngyv2WaZQv473q-11" edge="1" source="W849bkngyv2WaZQv473q-1">
          <mxGeometry relative="1" as="geometry">
            <mxPoint x="590" y="650" as="sourcePoint" />
            <mxPoint x="750" y="650" as="targetPoint" />
          </mxGeometry>
        </mxCell>
        <mxCell id="W849bkngyv2WaZQv473q-32" value="1" style="resizable=0;html=1;whiteSpace=wrap;align=right;verticalAlign=bottom;" parent="W849bkngyv2WaZQv473q-31" connectable="0" vertex="1">
          <mxGeometry x="1" relative="1" as="geometry" />
        </mxCell>
        <mxCell id="W849bkngyv2WaZQv473q-33" value="" style="endArrow=none;html=1;rounded=0;exitX=1;exitY=0;exitDx=0;exitDy=0;entryX=0.029;entryY=0.679;entryDx=0;entryDy=0;entryPerimeter=0;" parent="1" target="W849bkngyv2WaZQv473q-12" edge="1" source="W849bkngyv2WaZQv473q-1">
          <mxGeometry relative="1" as="geometry">
            <mxPoint x="640" y="649.31" as="sourcePoint" />
            <mxPoint x="730" y="640" as="targetPoint" />
          </mxGeometry>
        </mxCell>
        <mxCell id="W849bkngyv2WaZQv473q-34" value="1" style="resizable=0;html=1;whiteSpace=wrap;align=right;verticalAlign=bottom;" parent="W849bkngyv2WaZQv473q-33" connectable="0" vertex="1">
          <mxGeometry x="1" relative="1" as="geometry" />
        </mxCell>
        <mxCell id="W849bkngyv2WaZQv473q-35" value="" style="endArrow=none;html=1;rounded=0;exitX=1;exitY=0.5;exitDx=0;exitDy=0;" parent="1" target="W849bkngyv2WaZQv473q-15" edge="1" source="W849bkngyv2WaZQv473q-1">
          <mxGeometry relative="1" as="geometry">
            <mxPoint x="660" y="650" as="sourcePoint" />
            <mxPoint x="820" y="650" as="targetPoint" />
          </mxGeometry>
        </mxCell>
        <mxCell id="W849bkngyv2WaZQv473q-36" value="1" style="resizable=0;html=1;whiteSpace=wrap;align=right;verticalAlign=bottom;" parent="W849bkngyv2WaZQv473q-35" connectable="0" vertex="1">
          <mxGeometry x="1" relative="1" as="geometry" />
        </mxCell>
        <mxCell id="W849bkngyv2WaZQv473q-37" value="" style="endArrow=none;html=1;rounded=0;exitX=1;exitY=1;exitDx=0;exitDy=0;" parent="1" target="W849bkngyv2WaZQv473q-14" edge="1" source="W849bkngyv2WaZQv473q-1">
          <mxGeometry relative="1" as="geometry">
            <mxPoint x="670" y="650" as="sourcePoint" />
            <mxPoint x="830" y="650" as="targetPoint" />
          </mxGeometry>
        </mxCell>
        <mxCell id="W849bkngyv2WaZQv473q-38" value="1" style="resizable=0;html=1;whiteSpace=wrap;align=right;verticalAlign=bottom;" parent="W849bkngyv2WaZQv473q-37" connectable="0" vertex="1">
          <mxGeometry x="1" relative="1" as="geometry" />
        </mxCell>
        <mxCell id="Dh2ZBIdu3O22om_tBgBo-2" value="Scrap Seller" style="whiteSpace=wrap;html=1;align=center;" vertex="1" parent="1">
          <mxGeometry x="610" y="140" width="80" height="50" as="geometry" />
        </mxCell>
        <mxCell id="Dh2ZBIdu3O22om_tBgBo-3" value="Name" style="ellipse;whiteSpace=wrap;html=1;align=center;" vertex="1" parent="1">
          <mxGeometry x="490" y="30" width="100" height="40" as="geometry" />
        </mxCell>
        <mxCell id="Dh2ZBIdu3O22om_tBgBo-4" value="Email" style="ellipse;whiteSpace=wrap;html=1;align=center;" vertex="1" parent="1">
          <mxGeometry x="610" y="20" width="100" height="40" as="geometry" />
        </mxCell>
        <mxCell id="Dh2ZBIdu3O22om_tBgBo-5" value="Scrap Seller ID" style="ellipse;whiteSpace=wrap;html=1;align=center;fontStyle=4;" vertex="1" parent="1">
          <mxGeometry x="460" y="110" width="100" height="40" as="geometry" />
        </mxCell>
        <mxCell id="Dh2ZBIdu3O22om_tBgBo-6" value="PassWord" style="ellipse;whiteSpace=wrap;html=1;align=center;fontStyle=4;" vertex="1" parent="1">
          <mxGeometry x="740" y="100" width="100" height="40" as="geometry" />
        </mxCell>
        <mxCell id="Dh2ZBIdu3O22om_tBgBo-7" value="UserName" style="ellipse;whiteSpace=wrap;html=1;align=center;fontStyle=4;" vertex="1" parent="1">
          <mxGeometry x="720" y="40" width="100" height="40" as="geometry" />
        </mxCell>
        <mxCell id="Dh2ZBIdu3O22om_tBgBo-8" value="" style="endArrow=none;html=1;rounded=0;entryX=1;entryY=0.5;entryDx=0;entryDy=0;entryPerimeter=0;exitX=0;exitY=0.5;exitDx=0;exitDy=0;" edge="1" parent="1" source="Dh2ZBIdu3O22om_tBgBo-2" target="Dh2ZBIdu3O22om_tBgBo-5">
          <mxGeometry relative="1" as="geometry">
            <mxPoint x="610" y="180" as="sourcePoint" />
            <mxPoint x="770" y="180" as="targetPoint" />
          </mxGeometry>
        </mxCell>
        <mxCell id="Dh2ZBIdu3O22om_tBgBo-9" value="1" style="resizable=0;html=1;whiteSpace=wrap;align=right;verticalAlign=bottom;" connectable="0" vertex="1" parent="Dh2ZBIdu3O22om_tBgBo-8">
          <mxGeometry x="1" relative="1" as="geometry" />
        </mxCell>
        <mxCell id="Dh2ZBIdu3O22om_tBgBo-10" value="" style="endArrow=none;html=1;rounded=0;" edge="1" parent="1" target="Dh2ZBIdu3O22om_tBgBo-3">
          <mxGeometry relative="1" as="geometry">
            <mxPoint x="610" y="140" as="sourcePoint" />
            <mxPoint x="770" y="140" as="targetPoint" />
          </mxGeometry>
        </mxCell>
        <mxCell id="Dh2ZBIdu3O22om_tBgBo-11" value="1" style="resizable=0;html=1;whiteSpace=wrap;align=right;verticalAlign=bottom;" connectable="0" vertex="1" parent="Dh2ZBIdu3O22om_tBgBo-10">
          <mxGeometry x="1" relative="1" as="geometry" />
        </mxCell>
        <mxCell id="Dh2ZBIdu3O22om_tBgBo-12" value="" style="endArrow=none;html=1;rounded=0;entryX=0.5;entryY=1;entryDx=0;entryDy=0;" edge="1" parent="1" target="Dh2ZBIdu3O22om_tBgBo-4">
          <mxGeometry relative="1" as="geometry">
            <mxPoint x="660" y="139.30999999999995" as="sourcePoint" />
            <mxPoint x="820" y="139.30999999999995" as="targetPoint" />
          </mxGeometry>
        </mxCell>
        <mxCell id="Dh2ZBIdu3O22om_tBgBo-13" value="1" style="resizable=0;html=1;whiteSpace=wrap;align=right;verticalAlign=bottom;" connectable="0" vertex="1" parent="Dh2ZBIdu3O22om_tBgBo-12">
          <mxGeometry x="1" relative="1" as="geometry" />
        </mxCell>
        <mxCell id="Dh2ZBIdu3O22om_tBgBo-14" value="" style="endArrow=none;html=1;rounded=0;exitX=1;exitY=0;exitDx=0;exitDy=0;" edge="1" parent="1" target="Dh2ZBIdu3O22om_tBgBo-7" source="Dh2ZBIdu3O22om_tBgBo-2">
          <mxGeometry relative="1" as="geometry">
            <mxPoint x="680" y="140" as="sourcePoint" />
            <mxPoint x="840" y="140" as="targetPoint" />
          </mxGeometry>
        </mxCell>
        <mxCell id="Dh2ZBIdu3O22om_tBgBo-15" value="1" style="resizable=0;html=1;whiteSpace=wrap;align=right;verticalAlign=bottom;" connectable="0" vertex="1" parent="Dh2ZBIdu3O22om_tBgBo-14">
          <mxGeometry x="1" relative="1" as="geometry" />
        </mxCell>
        <mxCell id="Dh2ZBIdu3O22om_tBgBo-16" value="" style="endArrow=none;html=1;rounded=0;exitX=1;exitY=0.25;exitDx=0;exitDy=0;" edge="1" parent="1" target="Dh2ZBIdu3O22om_tBgBo-6" source="Dh2ZBIdu3O22om_tBgBo-2">
          <mxGeometry relative="1" as="geometry">
            <mxPoint x="690" y="140" as="sourcePoint" />
            <mxPoint x="850" y="140" as="targetPoint" />
          </mxGeometry>
        </mxCell>
        <mxCell id="Dh2ZBIdu3O22om_tBgBo-17" value="1" style="resizable=0;html=1;whiteSpace=wrap;align=right;verticalAlign=bottom;" connectable="0" vertex="1" parent="Dh2ZBIdu3O22om_tBgBo-16">
          <mxGeometry x="1" relative="1" as="geometry" />
        </mxCell>
        <mxCell id="Dh2ZBIdu3O22om_tBgBo-18" value="Address" style="ellipse;whiteSpace=wrap;html=1;align=center;" vertex="1" parent="1">
          <mxGeometry x="740" y="150" width="100" height="40" as="geometry" />
        </mxCell>
        <mxCell id="Dh2ZBIdu3O22om_tBgBo-19" value="Phone No." style="ellipse;shape=doubleEllipse;margin=3;whiteSpace=wrap;html=1;align=center;" vertex="1" parent="1">
          <mxGeometry x="720" y="200" width="100" height="40" as="geometry" />
        </mxCell>
        <mxCell id="Dh2ZBIdu3O22om_tBgBo-20" value="" style="endArrow=none;html=1;rounded=0;entryX=0;entryY=0;entryDx=0;entryDy=0;exitX=1;exitY=1;exitDx=0;exitDy=0;" edge="1" parent="1" source="Dh2ZBIdu3O22om_tBgBo-2" target="Dh2ZBIdu3O22om_tBgBo-19">
          <mxGeometry relative="1" as="geometry">
            <mxPoint x="340" y="240" as="sourcePoint" />
            <mxPoint x="500" y="240" as="targetPoint" />
          </mxGeometry>
        </mxCell>
        <mxCell id="Dh2ZBIdu3O22om_tBgBo-21" value="1" style="resizable=0;html=1;whiteSpace=wrap;align=right;verticalAlign=bottom;" connectable="0" vertex="1" parent="Dh2ZBIdu3O22om_tBgBo-20">
          <mxGeometry x="1" relative="1" as="geometry" />
        </mxCell>
        <mxCell id="Dh2ZBIdu3O22om_tBgBo-22" value="" style="endArrow=none;html=1;rounded=0;entryX=0;entryY=0.5;entryDx=0;entryDy=0;exitX=1;exitY=0.75;exitDx=0;exitDy=0;" edge="1" parent="1" source="Dh2ZBIdu3O22om_tBgBo-2" target="Dh2ZBIdu3O22om_tBgBo-18">
          <mxGeometry relative="1" as="geometry">
            <mxPoint x="340" y="240" as="sourcePoint" />
            <mxPoint x="500" y="240" as="targetPoint" />
          </mxGeometry>
        </mxCell>
        <mxCell id="Dh2ZBIdu3O22om_tBgBo-23" value="1" style="resizable=0;html=1;whiteSpace=wrap;align=right;verticalAlign=bottom;" connectable="0" vertex="1" parent="Dh2ZBIdu3O22om_tBgBo-22">
          <mxGeometry x="1" relative="1" as="geometry" />
        </mxCell>
        <mxCell id="Dh2ZBIdu3O22om_tBgBo-24" value="Scrap" style="whiteSpace=wrap;html=1;align=center;" vertex="1" parent="1">
          <mxGeometry x="130" y="120" width="100" height="40" as="geometry" />
        </mxCell>
        <mxCell id="Dh2ZBIdu3O22om_tBgBo-25" value="Scrap ID" style="ellipse;whiteSpace=wrap;html=1;align=center;fontStyle=4;" vertex="1" parent="1">
          <mxGeometry x="10" y="60" width="100" height="40" as="geometry" />
        </mxCell>
        <mxCell id="Dh2ZBIdu3O22om_tBgBo-27" value="Types" style="ellipse;shape=doubleEllipse;margin=3;whiteSpace=wrap;html=1;align=center;" vertex="1" parent="1">
          <mxGeometry x="130" y="30" width="100" height="40" as="geometry" />
        </mxCell>
        <mxCell id="Dh2ZBIdu3O22om_tBgBo-29" value="Description" style="ellipse;whiteSpace=wrap;html=1;align=center;" vertex="1" parent="1">
          <mxGeometry x="250" y="60" width="100" height="40" as="geometry" />
        </mxCell>
        <mxCell id="Dh2ZBIdu3O22om_tBgBo-30" value="Weight" style="ellipse;whiteSpace=wrap;html=1;align=center;" vertex="1" parent="1">
          <mxGeometry y="120" width="100" height="40" as="geometry" />
        </mxCell>
        <mxCell id="Dh2ZBIdu3O22om_tBgBo-31" value="Images" style="ellipse;whiteSpace=wrap;html=1;align=center;" vertex="1" parent="1">
          <mxGeometry x="10" y="180" width="100" height="40" as="geometry" />
        </mxCell>
        <mxCell id="Dh2ZBIdu3O22om_tBgBo-32" value="" style="endArrow=none;html=1;rounded=0;entryX=0;entryY=1;entryDx=0;entryDy=0;exitX=1;exitY=0;exitDx=0;exitDy=0;" edge="1" parent="1" source="Dh2ZBIdu3O22om_tBgBo-24" target="Dh2ZBIdu3O22om_tBgBo-29">
          <mxGeometry relative="1" as="geometry">
            <mxPoint x="320" y="300" as="sourcePoint" />
            <mxPoint x="480" y="300" as="targetPoint" />
          </mxGeometry>
        </mxCell>
        <mxCell id="Dh2ZBIdu3O22om_tBgBo-33" value="1" style="resizable=0;html=1;whiteSpace=wrap;align=right;verticalAlign=bottom;" connectable="0" vertex="1" parent="Dh2ZBIdu3O22om_tBgBo-32">
          <mxGeometry x="1" relative="1" as="geometry" />
        </mxCell>
        <mxCell id="Dh2ZBIdu3O22om_tBgBo-34" value="" style="endArrow=none;html=1;rounded=0;exitX=0;exitY=0;exitDx=0;exitDy=0;" edge="1" parent="1" source="Dh2ZBIdu3O22om_tBgBo-24" target="Dh2ZBIdu3O22om_tBgBo-25">
          <mxGeometry relative="1" as="geometry">
            <mxPoint x="240" y="130" as="sourcePoint" />
            <mxPoint x="275" y="104" as="targetPoint" />
          </mxGeometry>
        </mxCell>
        <mxCell id="Dh2ZBIdu3O22om_tBgBo-35" value="1" style="resizable=0;html=1;whiteSpace=wrap;align=right;verticalAlign=bottom;" connectable="0" vertex="1" parent="Dh2ZBIdu3O22om_tBgBo-34">
          <mxGeometry x="1" relative="1" as="geometry" />
        </mxCell>
        <mxCell id="Dh2ZBIdu3O22om_tBgBo-36" value="" style="endArrow=none;html=1;rounded=0;entryX=1;entryY=0.5;entryDx=0;entryDy=0;" edge="1" parent="1" target="Dh2ZBIdu3O22om_tBgBo-30">
          <mxGeometry relative="1" as="geometry">
            <mxPoint x="130" y="140" as="sourcePoint" />
            <mxPoint x="285" y="114" as="targetPoint" />
          </mxGeometry>
        </mxCell>
        <mxCell id="Dh2ZBIdu3O22om_tBgBo-37" value="1" style="resizable=0;html=1;whiteSpace=wrap;align=right;verticalAlign=bottom;" connectable="0" vertex="1" parent="Dh2ZBIdu3O22om_tBgBo-36">
          <mxGeometry x="1" relative="1" as="geometry" />
        </mxCell>
        <mxCell id="Dh2ZBIdu3O22om_tBgBo-38" value="" style="endArrow=none;html=1;rounded=0;entryX=1;entryY=0;entryDx=0;entryDy=0;exitX=0;exitY=1;exitDx=0;exitDy=0;" edge="1" parent="1" source="Dh2ZBIdu3O22om_tBgBo-24" target="Dh2ZBIdu3O22om_tBgBo-31">
          <mxGeometry relative="1" as="geometry">
            <mxPoint x="260" y="150" as="sourcePoint" />
            <mxPoint x="295" y="124" as="targetPoint" />
          </mxGeometry>
        </mxCell>
        <mxCell id="Dh2ZBIdu3O22om_tBgBo-39" value="1" style="resizable=0;html=1;whiteSpace=wrap;align=right;verticalAlign=bottom;" connectable="0" vertex="1" parent="Dh2ZBIdu3O22om_tBgBo-38">
          <mxGeometry x="1" relative="1" as="geometry" />
        </mxCell>
        <mxCell id="Dh2ZBIdu3O22om_tBgBo-40" value="" style="endArrow=none;html=1;rounded=0;entryX=0.5;entryY=1;entryDx=0;entryDy=0;" edge="1" parent="1" source="Dh2ZBIdu3O22om_tBgBo-24" target="Dh2ZBIdu3O22om_tBgBo-27">
          <mxGeometry relative="1" as="geometry">
            <mxPoint x="270" y="160" as="sourcePoint" />
            <mxPoint x="305" y="134" as="targetPoint" />
          </mxGeometry>
        </mxCell>
        <mxCell id="Dh2ZBIdu3O22om_tBgBo-41" value="1" style="resizable=0;html=1;whiteSpace=wrap;align=right;verticalAlign=bottom;" connectable="0" vertex="1" parent="Dh2ZBIdu3O22om_tBgBo-40">
          <mxGeometry x="1" relative="1" as="geometry" />
        </mxCell>
        <mxCell id="Dh2ZBIdu3O22om_tBgBo-42" value="ScrapYard" style="whiteSpace=wrap;html=1;align=center;" vertex="1" parent="1">
          <mxGeometry x="600" y="390" width="80" height="50" as="geometry" />
        </mxCell>
        <mxCell id="Dh2ZBIdu3O22om_tBgBo-43" value="Name" style="ellipse;whiteSpace=wrap;html=1;align=center;" vertex="1" parent="1">
          <mxGeometry x="480" y="280" width="100" height="40" as="geometry" />
        </mxCell>
        <mxCell id="Dh2ZBIdu3O22om_tBgBo-44" value="Email" style="ellipse;whiteSpace=wrap;html=1;align=center;" vertex="1" parent="1">
          <mxGeometry x="600" y="270" width="100" height="40" as="geometry" />
        </mxCell>
        <mxCell id="Dh2ZBIdu3O22om_tBgBo-45" value="Scrap Yard ID" style="ellipse;whiteSpace=wrap;html=1;align=center;fontStyle=4;" vertex="1" parent="1">
          <mxGeometry x="464" y="410" width="100" height="40" as="geometry" />
        </mxCell>
        <mxCell id="Dh2ZBIdu3O22om_tBgBo-46" value="PassWord" style="ellipse;whiteSpace=wrap;html=1;align=center;fontStyle=4;" vertex="1" parent="1">
          <mxGeometry x="730" y="350" width="100" height="40" as="geometry" />
        </mxCell>
        <mxCell id="Dh2ZBIdu3O22om_tBgBo-47" value="UserName" style="ellipse;whiteSpace=wrap;html=1;align=center;fontStyle=4;" vertex="1" parent="1">
          <mxGeometry x="710" y="290" width="100" height="40" as="geometry" />
        </mxCell>
        <mxCell id="Dh2ZBIdu3O22om_tBgBo-48" value="" style="endArrow=none;html=1;rounded=0;entryX=1;entryY=0.5;entryDx=0;entryDy=0;entryPerimeter=0;exitX=0;exitY=0.75;exitDx=0;exitDy=0;" edge="1" parent="1" source="Dh2ZBIdu3O22om_tBgBo-42" target="Dh2ZBIdu3O22om_tBgBo-45">
          <mxGeometry relative="1" as="geometry">
            <mxPoint x="600" y="430" as="sourcePoint" />
            <mxPoint x="760" y="430" as="targetPoint" />
          </mxGeometry>
        </mxCell>
        <mxCell id="Dh2ZBIdu3O22om_tBgBo-49" value="1" style="resizable=0;html=1;whiteSpace=wrap;align=right;verticalAlign=bottom;" connectable="0" vertex="1" parent="Dh2ZBIdu3O22om_tBgBo-48">
          <mxGeometry x="1" relative="1" as="geometry" />
        </mxCell>
        <mxCell id="Dh2ZBIdu3O22om_tBgBo-50" value="" style="endArrow=none;html=1;rounded=0;" edge="1" parent="1" target="Dh2ZBIdu3O22om_tBgBo-43">
          <mxGeometry relative="1" as="geometry">
            <mxPoint x="600" y="390" as="sourcePoint" />
            <mxPoint x="760" y="390" as="targetPoint" />
          </mxGeometry>
        </mxCell>
        <mxCell id="Dh2ZBIdu3O22om_tBgBo-51" value="1" style="resizable=0;html=1;whiteSpace=wrap;align=right;verticalAlign=bottom;" connectable="0" vertex="1" parent="Dh2ZBIdu3O22om_tBgBo-50">
          <mxGeometry x="1" relative="1" as="geometry" />
        </mxCell>
        <mxCell id="Dh2ZBIdu3O22om_tBgBo-52" value="" style="endArrow=none;html=1;rounded=0;entryX=0.5;entryY=1;entryDx=0;entryDy=0;" edge="1" parent="1" target="Dh2ZBIdu3O22om_tBgBo-44">
          <mxGeometry relative="1" as="geometry">
            <mxPoint x="650" y="389.30999999999995" as="sourcePoint" />
            <mxPoint x="810" y="389.30999999999995" as="targetPoint" />
          </mxGeometry>
        </mxCell>
        <mxCell id="Dh2ZBIdu3O22om_tBgBo-53" value="1" style="resizable=0;html=1;whiteSpace=wrap;align=right;verticalAlign=bottom;" connectable="0" vertex="1" parent="Dh2ZBIdu3O22om_tBgBo-52">
          <mxGeometry x="1" relative="1" as="geometry" />
        </mxCell>
        <mxCell id="Dh2ZBIdu3O22om_tBgBo-54" value="" style="endArrow=none;html=1;rounded=0;exitX=1;exitY=0;exitDx=0;exitDy=0;" edge="1" parent="1" source="Dh2ZBIdu3O22om_tBgBo-42" target="Dh2ZBIdu3O22om_tBgBo-47">
          <mxGeometry relative="1" as="geometry">
            <mxPoint x="670" y="390" as="sourcePoint" />
            <mxPoint x="830" y="390" as="targetPoint" />
          </mxGeometry>
        </mxCell>
        <mxCell id="Dh2ZBIdu3O22om_tBgBo-55" value="1" style="resizable=0;html=1;whiteSpace=wrap;align=right;verticalAlign=bottom;" connectable="0" vertex="1" parent="Dh2ZBIdu3O22om_tBgBo-54">
          <mxGeometry x="1" relative="1" as="geometry" />
        </mxCell>
        <mxCell id="Dh2ZBIdu3O22om_tBgBo-56" value="" style="endArrow=none;html=1;rounded=0;exitX=1;exitY=0.25;exitDx=0;exitDy=0;" edge="1" parent="1" source="Dh2ZBIdu3O22om_tBgBo-42" target="Dh2ZBIdu3O22om_tBgBo-46">
          <mxGeometry relative="1" as="geometry">
            <mxPoint x="680" y="390" as="sourcePoint" />
            <mxPoint x="840" y="390" as="targetPoint" />
          </mxGeometry>
        </mxCell>
        <mxCell id="Dh2ZBIdu3O22om_tBgBo-57" value="1" style="resizable=0;html=1;whiteSpace=wrap;align=right;verticalAlign=bottom;" connectable="0" vertex="1" parent="Dh2ZBIdu3O22om_tBgBo-56">
          <mxGeometry x="1" relative="1" as="geometry" />
        </mxCell>
        <mxCell id="Dh2ZBIdu3O22om_tBgBo-58" value="Address" style="ellipse;whiteSpace=wrap;html=1;align=center;" vertex="1" parent="1">
          <mxGeometry x="730" y="400" width="100" height="40" as="geometry" />
        </mxCell>
        <mxCell id="Dh2ZBIdu3O22om_tBgBo-59" value="Phone No." style="ellipse;shape=doubleEllipse;margin=3;whiteSpace=wrap;html=1;align=center;" vertex="1" parent="1">
          <mxGeometry x="710" y="450" width="100" height="40" as="geometry" />
        </mxCell>
        <mxCell id="Dh2ZBIdu3O22om_tBgBo-60" value="" style="endArrow=none;html=1;rounded=0;entryX=0;entryY=0;entryDx=0;entryDy=0;exitX=1;exitY=1;exitDx=0;exitDy=0;" edge="1" parent="1" source="Dh2ZBIdu3O22om_tBgBo-42" target="Dh2ZBIdu3O22om_tBgBo-59">
          <mxGeometry relative="1" as="geometry">
            <mxPoint x="330" y="490" as="sourcePoint" />
            <mxPoint x="490" y="490" as="targetPoint" />
          </mxGeometry>
        </mxCell>
        <mxCell id="Dh2ZBIdu3O22om_tBgBo-61" value="1" style="resizable=0;html=1;whiteSpace=wrap;align=right;verticalAlign=bottom;" connectable="0" vertex="1" parent="Dh2ZBIdu3O22om_tBgBo-60">
          <mxGeometry x="1" relative="1" as="geometry" />
        </mxCell>
        <mxCell id="Dh2ZBIdu3O22om_tBgBo-62" value="" style="endArrow=none;html=1;rounded=0;entryX=0;entryY=0.5;entryDx=0;entryDy=0;exitX=1;exitY=0.75;exitDx=0;exitDy=0;" edge="1" parent="1" source="Dh2ZBIdu3O22om_tBgBo-42" target="Dh2ZBIdu3O22om_tBgBo-58">
          <mxGeometry relative="1" as="geometry">
            <mxPoint x="330" y="490" as="sourcePoint" />
            <mxPoint x="490" y="490" as="targetPoint" />
          </mxGeometry>
        </mxCell>
        <mxCell id="Dh2ZBIdu3O22om_tBgBo-63" value="1" style="resizable=0;html=1;whiteSpace=wrap;align=right;verticalAlign=bottom;" connectable="0" vertex="1" parent="Dh2ZBIdu3O22om_tBgBo-62">
          <mxGeometry x="1" relative="1" as="geometry" />
        </mxCell>
        <mxCell id="Dh2ZBIdu3O22om_tBgBo-64" value="Scrap Yard&amp;nbsp;&lt;div&gt;Offers&lt;/div&gt;" style="whiteSpace=wrap;html=1;align=center;" vertex="1" parent="1">
          <mxGeometry x="130" y="340" width="100" height="40" as="geometry" />
        </mxCell>
        <mxCell id="Dh2ZBIdu3O22om_tBgBo-65" value="Offer ID" style="ellipse;whiteSpace=wrap;html=1;align=center;fontStyle=4;" vertex="1" parent="1">
          <mxGeometry x="10" y="280" width="100" height="40" as="geometry" />
        </mxCell>
        <mxCell id="Dh2ZBIdu3O22om_tBgBo-67" value="Description" style="ellipse;whiteSpace=wrap;html=1;align=center;" vertex="1" parent="1">
          <mxGeometry x="250" y="280" width="100" height="40" as="geometry" />
        </mxCell>
        <mxCell id="Dh2ZBIdu3O22om_tBgBo-70" value="" style="endArrow=none;html=1;rounded=0;entryX=0;entryY=1;entryDx=0;entryDy=0;exitX=1;exitY=0;exitDx=0;exitDy=0;" edge="1" parent="1" source="Dh2ZBIdu3O22om_tBgBo-64" target="Dh2ZBIdu3O22om_tBgBo-67">
          <mxGeometry relative="1" as="geometry">
            <mxPoint x="320" y="520" as="sourcePoint" />
            <mxPoint x="480" y="520" as="targetPoint" />
          </mxGeometry>
        </mxCell>
        <mxCell id="Dh2ZBIdu3O22om_tBgBo-71" value="1" style="resizable=0;html=1;whiteSpace=wrap;align=right;verticalAlign=bottom;" connectable="0" vertex="1" parent="Dh2ZBIdu3O22om_tBgBo-70">
          <mxGeometry x="1" relative="1" as="geometry" />
        </mxCell>
        <mxCell id="Dh2ZBIdu3O22om_tBgBo-72" value="" style="endArrow=none;html=1;rounded=0;exitX=0;exitY=0;exitDx=0;exitDy=0;" edge="1" parent="1" source="Dh2ZBIdu3O22om_tBgBo-64" target="Dh2ZBIdu3O22om_tBgBo-65">
          <mxGeometry relative="1" as="geometry">
            <mxPoint x="240" y="350" as="sourcePoint" />
            <mxPoint x="275" y="324" as="targetPoint" />
          </mxGeometry>
        </mxCell>
        <mxCell id="Dh2ZBIdu3O22om_tBgBo-73" value="1" style="resizable=0;html=1;whiteSpace=wrap;align=right;verticalAlign=bottom;" connectable="0" vertex="1" parent="Dh2ZBIdu3O22om_tBgBo-72">
          <mxGeometry x="1" relative="1" as="geometry" />
        </mxCell>
        <mxCell id="Dh2ZBIdu3O22om_tBgBo-74" value="" style="endArrow=none;html=1;rounded=0;entryX=1;entryY=0.5;entryDx=0;entryDy=0;" edge="1" parent="1">
          <mxGeometry relative="1" as="geometry">
            <mxPoint x="130" y="360" as="sourcePoint" />
            <mxPoint x="100.00000000000125" y="360" as="targetPoint" />
          </mxGeometry>
        </mxCell>
        <mxCell id="Dh2ZBIdu3O22om_tBgBo-75" value="1" style="resizable=0;html=1;whiteSpace=wrap;align=right;verticalAlign=bottom;" connectable="0" vertex="1" parent="Dh2ZBIdu3O22om_tBgBo-74">
          <mxGeometry x="1" relative="1" as="geometry" />
        </mxCell>
        <mxCell id="Dh2ZBIdu3O22om_tBgBo-76" value="" style="endArrow=none;html=1;rounded=0;entryX=1;entryY=0;entryDx=0;entryDy=0;exitX=0;exitY=1;exitDx=0;exitDy=0;" edge="1" parent="1" source="Dh2ZBIdu3O22om_tBgBo-64" target="Dh2ZBIdu3O22om_tBgBo-81">
          <mxGeometry relative="1" as="geometry">
            <mxPoint x="260" y="370" as="sourcePoint" />
            <mxPoint x="95.35533905932743" y="405.85786437626894" as="targetPoint" />
          </mxGeometry>
        </mxCell>
        <mxCell id="Dh2ZBIdu3O22om_tBgBo-77" value="1" style="resizable=0;html=1;whiteSpace=wrap;align=right;verticalAlign=bottom;" connectable="0" vertex="1" parent="Dh2ZBIdu3O22om_tBgBo-76">
          <mxGeometry x="1" relative="1" as="geometry" />
        </mxCell>
        <mxCell id="Dh2ZBIdu3O22om_tBgBo-80" value="Scrap ID" style="ellipse;whiteSpace=wrap;html=1;align=center;dashed=1;" vertex="1" parent="1">
          <mxGeometry y="340" width="100" height="40" as="geometry" />
        </mxCell>
        <mxCell id="Dh2ZBIdu3O22om_tBgBo-81" value="Scrap Yard ID" style="ellipse;whiteSpace=wrap;html=1;align=center;dashed=1;" vertex="1" parent="1">
          <mxGeometry x="10" y="395" width="100" height="40" as="geometry" />
        </mxCell>
        <mxCell id="Dh2ZBIdu3O22om_tBgBo-82" value="Status" style="ellipse;whiteSpace=wrap;html=1;align=center;" vertex="1" parent="1">
          <mxGeometry x="240" y="390" width="100" height="40" as="geometry" />
        </mxCell>
        <mxCell id="Dh2ZBIdu3O22om_tBgBo-83" value="" style="endArrow=none;html=1;rounded=0;exitX=1;exitY=1;exitDx=0;exitDy=0;entryX=0.073;entryY=0.255;entryDx=0;entryDy=0;entryPerimeter=0;" edge="1" parent="1" source="Dh2ZBIdu3O22om_tBgBo-64" target="Dh2ZBIdu3O22om_tBgBo-82">
          <mxGeometry relative="1" as="geometry">
            <mxPoint x="244" y="380" as="sourcePoint" />
            <mxPoint x="264.9999999999998" y="397.28" as="targetPoint" />
          </mxGeometry>
        </mxCell>
        <mxCell id="Dh2ZBIdu3O22om_tBgBo-84" value="1" style="resizable=0;html=1;whiteSpace=wrap;align=right;verticalAlign=bottom;" connectable="0" vertex="1" parent="Dh2ZBIdu3O22om_tBgBo-83">
          <mxGeometry x="1" relative="1" as="geometry" />
        </mxCell>
        <mxCell id="Dh2ZBIdu3O22om_tBgBo-85" value="Team Member&amp;nbsp;" style="whiteSpace=wrap;html=1;align=center;" vertex="1" parent="1">
          <mxGeometry x="610" y="-100" width="80" height="50" as="geometry" />
        </mxCell>
        <mxCell id="Dh2ZBIdu3O22om_tBgBo-86" value="Name" style="ellipse;whiteSpace=wrap;html=1;align=center;" vertex="1" parent="1">
          <mxGeometry x="490" y="-210" width="100" height="40" as="geometry" />
        </mxCell>
        <mxCell id="Dh2ZBIdu3O22om_tBgBo-87" value="Email" style="ellipse;whiteSpace=wrap;html=1;align=center;" vertex="1" parent="1">
          <mxGeometry x="610" y="-220" width="100" height="40" as="geometry" />
        </mxCell>
        <mxCell id="Dh2ZBIdu3O22om_tBgBo-88" value="Team Member ID" style="ellipse;whiteSpace=wrap;html=1;align=center;fontStyle=4;" vertex="1" parent="1">
          <mxGeometry x="464" y="-130" width="100" height="40" as="geometry" />
        </mxCell>
        <mxCell id="Dh2ZBIdu3O22om_tBgBo-89" value="PassWord" style="ellipse;whiteSpace=wrap;html=1;align=center;fontStyle=4;" vertex="1" parent="1">
          <mxGeometry x="740" y="-140" width="100" height="40" as="geometry" />
        </mxCell>
        <mxCell id="Dh2ZBIdu3O22om_tBgBo-90" value="UserName" style="ellipse;whiteSpace=wrap;html=1;align=center;fontStyle=4;" vertex="1" parent="1">
          <mxGeometry x="720" y="-200" width="100" height="40" as="geometry" />
        </mxCell>
        <mxCell id="Dh2ZBIdu3O22om_tBgBo-91" value="" style="endArrow=none;html=1;rounded=0;entryX=1;entryY=0.5;entryDx=0;entryDy=0;entryPerimeter=0;exitX=0;exitY=0.5;exitDx=0;exitDy=0;" edge="1" parent="1" source="Dh2ZBIdu3O22om_tBgBo-85" target="Dh2ZBIdu3O22om_tBgBo-88">
          <mxGeometry relative="1" as="geometry">
            <mxPoint x="610" y="-60" as="sourcePoint" />
            <mxPoint x="770" y="-60" as="targetPoint" />
          </mxGeometry>
        </mxCell>
        <mxCell id="Dh2ZBIdu3O22om_tBgBo-92" value="1" style="resizable=0;html=1;whiteSpace=wrap;align=right;verticalAlign=bottom;" connectable="0" vertex="1" parent="Dh2ZBIdu3O22om_tBgBo-91">
          <mxGeometry x="1" relative="1" as="geometry" />
        </mxCell>
        <mxCell id="Dh2ZBIdu3O22om_tBgBo-93" value="" style="endArrow=none;html=1;rounded=0;" edge="1" parent="1" target="Dh2ZBIdu3O22om_tBgBo-86">
          <mxGeometry relative="1" as="geometry">
            <mxPoint x="610" y="-100" as="sourcePoint" />
            <mxPoint x="770" y="-100" as="targetPoint" />
          </mxGeometry>
        </mxCell>
        <mxCell id="Dh2ZBIdu3O22om_tBgBo-94" value="1" style="resizable=0;html=1;whiteSpace=wrap;align=right;verticalAlign=bottom;" connectable="0" vertex="1" parent="Dh2ZBIdu3O22om_tBgBo-93">
          <mxGeometry x="1" relative="1" as="geometry" />
        </mxCell>
        <mxCell id="Dh2ZBIdu3O22om_tBgBo-95" value="" style="endArrow=none;html=1;rounded=0;entryX=0.5;entryY=1;entryDx=0;entryDy=0;" edge="1" parent="1" target="Dh2ZBIdu3O22om_tBgBo-87">
          <mxGeometry relative="1" as="geometry">
            <mxPoint x="660" y="-100.69000000000005" as="sourcePoint" />
            <mxPoint x="820" y="-100.69000000000005" as="targetPoint" />
          </mxGeometry>
        </mxCell>
        <mxCell id="Dh2ZBIdu3O22om_tBgBo-96" value="1" style="resizable=0;html=1;whiteSpace=wrap;align=right;verticalAlign=bottom;" connectable="0" vertex="1" parent="Dh2ZBIdu3O22om_tBgBo-95">
          <mxGeometry x="1" relative="1" as="geometry" />
        </mxCell>
        <mxCell id="Dh2ZBIdu3O22om_tBgBo-97" value="" style="endArrow=none;html=1;rounded=0;exitX=1;exitY=0;exitDx=0;exitDy=0;" edge="1" parent="1" source="Dh2ZBIdu3O22om_tBgBo-85" target="Dh2ZBIdu3O22om_tBgBo-90">
          <mxGeometry relative="1" as="geometry">
            <mxPoint x="680" y="-100" as="sourcePoint" />
            <mxPoint x="840" y="-100" as="targetPoint" />
          </mxGeometry>
        </mxCell>
        <mxCell id="Dh2ZBIdu3O22om_tBgBo-98" value="1" style="resizable=0;html=1;whiteSpace=wrap;align=right;verticalAlign=bottom;" connectable="0" vertex="1" parent="Dh2ZBIdu3O22om_tBgBo-97">
          <mxGeometry x="1" relative="1" as="geometry" />
        </mxCell>
        <mxCell id="Dh2ZBIdu3O22om_tBgBo-99" value="" style="endArrow=none;html=1;rounded=0;exitX=1;exitY=0.25;exitDx=0;exitDy=0;entryX=0.054;entryY=0.744;entryDx=0;entryDy=0;entryPerimeter=0;" edge="1" parent="1" source="Dh2ZBIdu3O22om_tBgBo-85" target="Dh2ZBIdu3O22om_tBgBo-89">
          <mxGeometry relative="1" as="geometry">
            <mxPoint x="690" y="-100" as="sourcePoint" />
            <mxPoint x="750" y="-110" as="targetPoint" />
          </mxGeometry>
        </mxCell>
        <mxCell id="Dh2ZBIdu3O22om_tBgBo-100" value="1" style="resizable=0;html=1;whiteSpace=wrap;align=right;verticalAlign=bottom;" connectable="0" vertex="1" parent="Dh2ZBIdu3O22om_tBgBo-99">
          <mxGeometry x="1" relative="1" as="geometry" />
        </mxCell>
        <mxCell id="Dh2ZBIdu3O22om_tBgBo-101" value="Address" style="ellipse;whiteSpace=wrap;html=1;align=center;" vertex="1" parent="1">
          <mxGeometry x="740" y="-90" width="100" height="40" as="geometry" />
        </mxCell>
        <mxCell id="Dh2ZBIdu3O22om_tBgBo-102" value="Phone No." style="ellipse;shape=doubleEllipse;margin=3;whiteSpace=wrap;html=1;align=center;" vertex="1" parent="1">
          <mxGeometry x="730" y="-40" width="100" height="40" as="geometry" />
        </mxCell>
        <mxCell id="Dh2ZBIdu3O22om_tBgBo-103" value="" style="endArrow=none;html=1;rounded=0;entryX=0;entryY=0;entryDx=0;entryDy=0;exitX=1;exitY=1;exitDx=0;exitDy=0;" edge="1" parent="1" source="Dh2ZBIdu3O22om_tBgBo-85" target="Dh2ZBIdu3O22om_tBgBo-102">
          <mxGeometry relative="1" as="geometry">
            <mxPoint x="340" as="sourcePoint" />
            <mxPoint x="500" as="targetPoint" />
          </mxGeometry>
        </mxCell>
        <mxCell id="Dh2ZBIdu3O22om_tBgBo-104" value="1" style="resizable=0;html=1;whiteSpace=wrap;align=right;verticalAlign=bottom;" connectable="0" vertex="1" parent="Dh2ZBIdu3O22om_tBgBo-103">
          <mxGeometry x="1" relative="1" as="geometry" />
        </mxCell>
        <mxCell id="Dh2ZBIdu3O22om_tBgBo-105" value="" style="endArrow=none;html=1;rounded=0;entryX=0;entryY=0.5;entryDx=0;entryDy=0;exitX=1;exitY=0.75;exitDx=0;exitDy=0;" edge="1" parent="1" source="Dh2ZBIdu3O22om_tBgBo-85" target="Dh2ZBIdu3O22om_tBgBo-101">
          <mxGeometry relative="1" as="geometry">
            <mxPoint x="340" as="sourcePoint" />
            <mxPoint x="500" as="targetPoint" />
          </mxGeometry>
        </mxCell>
        <mxCell id="Dh2ZBIdu3O22om_tBgBo-106" value="1" style="resizable=0;html=1;whiteSpace=wrap;align=right;verticalAlign=bottom;" connectable="0" vertex="1" parent="Dh2ZBIdu3O22om_tBgBo-105">
          <mxGeometry x="1" relative="1" as="geometry" />
        </mxCell>
        <mxCell id="Dh2ZBIdu3O22om_tBgBo-107" value="Verification" style="whiteSpace=wrap;html=1;align=center;" vertex="1" parent="1">
          <mxGeometry x="130" y="-110" width="100" height="40" as="geometry" />
        </mxCell>
        <mxCell id="Dh2ZBIdu3O22om_tBgBo-111" value="Status" style="ellipse;whiteSpace=wrap;html=1;align=center;" vertex="1" parent="1">
          <mxGeometry x="-10" y="-110" width="100" height="40" as="geometry" />
        </mxCell>
        <mxCell id="Dh2ZBIdu3O22om_tBgBo-112" value="Date" style="ellipse;whiteSpace=wrap;html=1;align=center;" vertex="1" parent="1">
          <mxGeometry y="-50" width="100" height="40" as="geometry" />
        </mxCell>
        <mxCell id="Dh2ZBIdu3O22om_tBgBo-115" value="" style="endArrow=none;html=1;rounded=0;exitX=0;exitY=0;exitDx=0;exitDy=0;entryX=1;entryY=1;entryDx=0;entryDy=0;" edge="1" parent="1" source="Dh2ZBIdu3O22om_tBgBo-107" target="Dh2ZBIdu3O22om_tBgBo-123">
          <mxGeometry relative="1" as="geometry">
            <mxPoint x="240" y="-100" as="sourcePoint" />
            <mxPoint x="88.55322440992745" y="-133.58189596429168" as="targetPoint" />
          </mxGeometry>
        </mxCell>
        <mxCell id="Dh2ZBIdu3O22om_tBgBo-116" value="1" style="resizable=0;html=1;whiteSpace=wrap;align=right;verticalAlign=bottom;" connectable="0" vertex="1" parent="Dh2ZBIdu3O22om_tBgBo-115">
          <mxGeometry x="1" relative="1" as="geometry" />
        </mxCell>
        <mxCell id="Dh2ZBIdu3O22om_tBgBo-117" value="" style="endArrow=none;html=1;rounded=0;entryX=1;entryY=0.5;entryDx=0;entryDy=0;" edge="1" parent="1" target="Dh2ZBIdu3O22om_tBgBo-111">
          <mxGeometry relative="1" as="geometry">
            <mxPoint x="130" y="-90" as="sourcePoint" />
            <mxPoint x="285" y="-116" as="targetPoint" />
          </mxGeometry>
        </mxCell>
        <mxCell id="Dh2ZBIdu3O22om_tBgBo-118" value="1" style="resizable=0;html=1;whiteSpace=wrap;align=right;verticalAlign=bottom;" connectable="0" vertex="1" parent="Dh2ZBIdu3O22om_tBgBo-117">
          <mxGeometry x="1" relative="1" as="geometry" />
        </mxCell>
        <mxCell id="Dh2ZBIdu3O22om_tBgBo-119" value="" style="endArrow=none;html=1;rounded=0;entryX=1;entryY=0;entryDx=0;entryDy=0;exitX=0;exitY=1;exitDx=0;exitDy=0;" edge="1" parent="1" source="Dh2ZBIdu3O22om_tBgBo-107" target="Dh2ZBIdu3O22om_tBgBo-112">
          <mxGeometry relative="1" as="geometry">
            <mxPoint x="260" y="-80" as="sourcePoint" />
            <mxPoint x="295" y="-106" as="targetPoint" />
          </mxGeometry>
        </mxCell>
        <mxCell id="Dh2ZBIdu3O22om_tBgBo-120" value="1" style="resizable=0;html=1;whiteSpace=wrap;align=right;verticalAlign=bottom;" connectable="0" vertex="1" parent="Dh2ZBIdu3O22om_tBgBo-119">
          <mxGeometry x="1" relative="1" as="geometry" />
        </mxCell>
        <mxCell id="Dh2ZBIdu3O22om_tBgBo-121" value="" style="endArrow=none;html=1;rounded=0;entryX=0.5;entryY=1;entryDx=0;entryDy=0;" edge="1" parent="1" source="Dh2ZBIdu3O22om_tBgBo-107" target="Dh2ZBIdu3O22om_tBgBo-124">
          <mxGeometry relative="1" as="geometry">
            <mxPoint x="270" y="-70" as="sourcePoint" />
            <mxPoint x="180" y="-160" as="targetPoint" />
            <Array as="points">
              <mxPoint x="180" y="-140" />
            </Array>
          </mxGeometry>
        </mxCell>
        <mxCell id="Dh2ZBIdu3O22om_tBgBo-122" value="1" style="resizable=0;html=1;whiteSpace=wrap;align=right;verticalAlign=bottom;" connectable="0" vertex="1" parent="Dh2ZBIdu3O22om_tBgBo-121">
          <mxGeometry x="1" relative="1" as="geometry" />
        </mxCell>
        <mxCell id="Dh2ZBIdu3O22om_tBgBo-123" value="Scrap ID" style="ellipse;whiteSpace=wrap;html=1;align=center;dashed=1;" vertex="1" parent="1">
          <mxGeometry y="-170" width="100" height="40" as="geometry" />
        </mxCell>
        <mxCell id="Dh2ZBIdu3O22om_tBgBo-124" value="Verification&amp;nbsp;&lt;div&gt;ID&lt;/div&gt;" style="ellipse;whiteSpace=wrap;html=1;align=center;fontStyle=4;" vertex="1" parent="1">
          <mxGeometry x="130" y="-200" width="100" height="40" as="geometry" />
        </mxCell>
        <mxCell id="Dh2ZBIdu3O22om_tBgBo-125" value="Team Member&amp;nbsp;&lt;div&gt;ID&lt;/div&gt;" style="ellipse;whiteSpace=wrap;html=1;align=center;dashed=1;" vertex="1" parent="1">
          <mxGeometry x="270" y="-180" width="100" height="40" as="geometry" />
        </mxCell>
        <mxCell id="Dh2ZBIdu3O22om_tBgBo-126" value="" style="endArrow=none;html=1;rounded=0;entryX=0;entryY=1;entryDx=0;entryDy=0;exitX=1;exitY=0;exitDx=0;exitDy=0;" edge="1" parent="1" source="Dh2ZBIdu3O22om_tBgBo-107" target="Dh2ZBIdu3O22om_tBgBo-125">
          <mxGeometry relative="1" as="geometry">
            <mxPoint x="190" y="-100" as="sourcePoint" />
            <mxPoint x="190" y="-150" as="targetPoint" />
            <Array as="points" />
          </mxGeometry>
        </mxCell>
        <mxCell id="Dh2ZBIdu3O22om_tBgBo-127" value="1" style="resizable=0;html=1;whiteSpace=wrap;align=right;verticalAlign=bottom;" connectable="0" vertex="1" parent="Dh2ZBIdu3O22om_tBgBo-126">
          <mxGeometry x="1" relative="1" as="geometry" />
        </mxCell>
        <mxCell id="Dh2ZBIdu3O22om_tBgBo-128" value="Scrap Yard ID" style="ellipse;whiteSpace=wrap;html=1;align=center;dashed=1;" vertex="1" parent="1">
          <mxGeometry y="545" width="100" height="40" as="geometry" />
        </mxCell>
        <mxCell id="Dh2ZBIdu3O22om_tBgBo-129" value="Resale Items&amp;nbsp;&lt;div&gt;ID&lt;/div&gt;" style="ellipse;whiteSpace=wrap;html=1;align=center;fontStyle=4;" vertex="1" parent="1">
          <mxGeometry x="120" y="530" width="100" height="40" as="geometry" />
        </mxCell>
        <mxCell id="Dh2ZBIdu3O22om_tBgBo-131" value="Categoty" style="ellipse;shape=doubleEllipse;margin=3;whiteSpace=wrap;html=1;align=center;" vertex="1" parent="1">
          <mxGeometry x="120" y="675" width="100" height="40" as="geometry" />
        </mxCell>
        <mxCell id="Dh2ZBIdu3O22om_tBgBo-132" value="Description" style="ellipse;whiteSpace=wrap;html=1;align=center;" vertex="1" parent="1">
          <mxGeometry x="10" y="655" width="100" height="40" as="geometry" />
        </mxCell>
        <mxCell id="Dh2ZBIdu3O22om_tBgBo-133" value="Images" style="ellipse;whiteSpace=wrap;html=1;align=center;" vertex="1" parent="1">
          <mxGeometry x="230" y="655" width="100" height="40" as="geometry" />
        </mxCell>
        <mxCell id="Dh2ZBIdu3O22om_tBgBo-134" value="" style="endArrow=none;html=1;rounded=0;entryX=0.5;entryY=1;entryDx=0;entryDy=0;exitX=0.5;exitY=0;exitDx=0;exitDy=0;" edge="1" parent="1" source="W849bkngyv2WaZQv473q-4" target="Dh2ZBIdu3O22om_tBgBo-129">
          <mxGeometry relative="1" as="geometry">
            <mxPoint x="350" y="465" as="sourcePoint" />
            <mxPoint x="510" y="465" as="targetPoint" />
          </mxGeometry>
        </mxCell>
        <mxCell id="Dh2ZBIdu3O22om_tBgBo-135" value="1" style="resizable=0;html=1;whiteSpace=wrap;align=right;verticalAlign=bottom;" connectable="0" vertex="1" parent="Dh2ZBIdu3O22om_tBgBo-134">
          <mxGeometry x="1" relative="1" as="geometry" />
        </mxCell>
        <mxCell id="Dh2ZBIdu3O22om_tBgBo-136" value="" style="endArrow=none;html=1;rounded=0;entryX=1;entryY=1;entryDx=0;entryDy=0;exitX=0;exitY=0;exitDx=0;exitDy=0;" edge="1" parent="1" source="W849bkngyv2WaZQv473q-4" target="Dh2ZBIdu3O22om_tBgBo-128">
          <mxGeometry relative="1" as="geometry">
            <mxPoint x="180" y="615" as="sourcePoint" />
            <mxPoint x="180" y="575" as="targetPoint" />
          </mxGeometry>
        </mxCell>
        <mxCell id="Dh2ZBIdu3O22om_tBgBo-137" value="1" style="resizable=0;html=1;whiteSpace=wrap;align=right;verticalAlign=bottom;" connectable="0" vertex="1" parent="Dh2ZBIdu3O22om_tBgBo-136">
          <mxGeometry x="1" relative="1" as="geometry" />
        </mxCell>
        <mxCell id="Dh2ZBIdu3O22om_tBgBo-138" value="" style="endArrow=none;html=1;rounded=0;entryX=0.5;entryY=0;entryDx=0;entryDy=0;exitX=0.5;exitY=1;exitDx=0;exitDy=0;" edge="1" parent="1" source="W849bkngyv2WaZQv473q-4" target="Dh2ZBIdu3O22om_tBgBo-131">
          <mxGeometry relative="1" as="geometry">
            <mxPoint x="130" y="625" as="sourcePoint" />
            <mxPoint x="80.00000000000341" y="625" as="targetPoint" />
          </mxGeometry>
        </mxCell>
        <mxCell id="Dh2ZBIdu3O22om_tBgBo-139" value="1" style="resizable=0;html=1;whiteSpace=wrap;align=right;verticalAlign=bottom;" connectable="0" vertex="1" parent="Dh2ZBIdu3O22om_tBgBo-138">
          <mxGeometry x="1" relative="1" as="geometry" />
        </mxCell>
        <mxCell id="Dh2ZBIdu3O22om_tBgBo-140" value="" style="endArrow=none;html=1;rounded=0;entryX=0.958;entryY=0.276;entryDx=0;entryDy=0;exitX=0;exitY=1;exitDx=0;exitDy=0;entryPerimeter=0;" edge="1" parent="1" source="W849bkngyv2WaZQv473q-4" target="Dh2ZBIdu3O22om_tBgBo-132">
          <mxGeometry relative="1" as="geometry">
            <mxPoint x="200" y="635" as="sourcePoint" />
            <mxPoint x="200" y="595" as="targetPoint" />
          </mxGeometry>
        </mxCell>
        <mxCell id="Dh2ZBIdu3O22om_tBgBo-141" value="1" style="resizable=0;html=1;whiteSpace=wrap;align=right;verticalAlign=bottom;" connectable="0" vertex="1" parent="Dh2ZBIdu3O22om_tBgBo-140">
          <mxGeometry x="1" relative="1" as="geometry" />
        </mxCell>
        <mxCell id="Dh2ZBIdu3O22om_tBgBo-142" value="" style="endArrow=none;html=1;rounded=0;entryX=0.5;entryY=0;entryDx=0;entryDy=0;exitX=1;exitY=1;exitDx=0;exitDy=0;exitPerimeter=0;" edge="1" parent="1" source="W849bkngyv2WaZQv473q-4" target="Dh2ZBIdu3O22om_tBgBo-133">
          <mxGeometry relative="1" as="geometry">
            <mxPoint x="210" y="645" as="sourcePoint" />
            <mxPoint x="210" y="605" as="targetPoint" />
          </mxGeometry>
        </mxCell>
        <mxCell id="Dh2ZBIdu3O22om_tBgBo-143" value="1" style="resizable=0;html=1;whiteSpace=wrap;align=right;verticalAlign=bottom;" connectable="0" vertex="1" parent="Dh2ZBIdu3O22om_tBgBo-142">
          <mxGeometry x="1" relative="1" as="geometry" />
        </mxCell>
        <mxCell id="Dh2ZBIdu3O22om_tBgBo-146" value="Order ID" style="ellipse;whiteSpace=wrap;html=1;align=center;fontStyle=4;" vertex="1" parent="1">
          <mxGeometry x="510" y="830" width="100" height="40" as="geometry" />
        </mxCell>
        <mxCell id="Dh2ZBIdu3O22om_tBgBo-147" value="Resale Items&amp;nbsp;&lt;div&gt;ID&lt;/div&gt;" style="ellipse;whiteSpace=wrap;html=1;align=center;dashed=1;" vertex="1" parent="1">
          <mxGeometry x="700" y="830" width="100" height="40" as="geometry" />
        </mxCell>
        <mxCell id="Dh2ZBIdu3O22om_tBgBo-148" value="Customer ID" style="ellipse;whiteSpace=wrap;html=1;align=center;dashed=1;" vertex="1" parent="1">
          <mxGeometry x="720" y="890" width="100" height="40" as="geometry" />
        </mxCell>
        <mxCell id="Dh2ZBIdu3O22om_tBgBo-149" value="Order Date&amp;nbsp;" style="ellipse;whiteSpace=wrap;html=1;align=center;" vertex="1" parent="1">
          <mxGeometry x="690" y="950" width="100" height="40" as="geometry" />
        </mxCell>
        <mxCell id="Dh2ZBIdu3O22om_tBgBo-150" value="Status" style="ellipse;whiteSpace=wrap;html=1;align=center;" vertex="1" parent="1">
          <mxGeometry x="510" y="950" width="100" height="40" as="geometry" />
        </mxCell>
        <mxCell id="Dh2ZBIdu3O22om_tBgBo-151" value="" style="endArrow=none;html=1;rounded=0;entryX=0;entryY=0;entryDx=0;entryDy=0;exitX=1;exitY=1;exitDx=0;exitDy=0;" edge="1" parent="1" source="W849bkngyv2WaZQv473q-2" target="Dh2ZBIdu3O22om_tBgBo-149">
          <mxGeometry relative="1" as="geometry">
            <mxPoint x="615" y="950" as="sourcePoint" />
            <mxPoint x="685" y="960" as="targetPoint" />
          </mxGeometry>
        </mxCell>
        <mxCell id="Dh2ZBIdu3O22om_tBgBo-152" value="1" style="resizable=0;html=1;whiteSpace=wrap;align=right;verticalAlign=bottom;" connectable="0" vertex="1" parent="Dh2ZBIdu3O22om_tBgBo-151">
          <mxGeometry x="1" relative="1" as="geometry" />
        </mxCell>
        <mxCell id="Dh2ZBIdu3O22om_tBgBo-153" value="" style="endArrow=none;html=1;rounded=0;entryX=0.73;entryY=0.068;entryDx=0;entryDy=0;exitX=0;exitY=1;exitDx=0;exitDy=0;entryPerimeter=0;" edge="1" parent="1" source="W849bkngyv2WaZQv473q-2" target="Dh2ZBIdu3O22om_tBgBo-150">
          <mxGeometry relative="1" as="geometry">
            <mxPoint x="690" y="940" as="sourcePoint" />
            <mxPoint x="715" y="966" as="targetPoint" />
          </mxGeometry>
        </mxCell>
        <mxCell id="Dh2ZBIdu3O22om_tBgBo-154" value="1" style="resizable=0;html=1;whiteSpace=wrap;align=right;verticalAlign=bottom;" connectable="0" vertex="1" parent="Dh2ZBIdu3O22om_tBgBo-153">
          <mxGeometry x="1" relative="1" as="geometry" />
        </mxCell>
        <mxCell id="Dh2ZBIdu3O22om_tBgBo-155" value="" style="endArrow=none;html=1;rounded=0;entryX=0.066;entryY=0.772;entryDx=0;entryDy=0;exitX=1;exitY=0;exitDx=0;exitDy=0;entryPerimeter=0;" edge="1" parent="1" source="W849bkngyv2WaZQv473q-2" target="Dh2ZBIdu3O22om_tBgBo-147">
          <mxGeometry relative="1" as="geometry">
            <mxPoint x="700" y="950" as="sourcePoint" />
            <mxPoint x="725" y="976" as="targetPoint" />
          </mxGeometry>
        </mxCell>
        <mxCell id="Dh2ZBIdu3O22om_tBgBo-156" value="1" style="resizable=0;html=1;whiteSpace=wrap;align=right;verticalAlign=bottom;" connectable="0" vertex="1" parent="Dh2ZBIdu3O22om_tBgBo-155">
          <mxGeometry x="1" relative="1" as="geometry" />
        </mxCell>
        <mxCell id="Dh2ZBIdu3O22om_tBgBo-157" value="" style="endArrow=none;html=1;rounded=0;entryX=0;entryY=0.5;entryDx=0;entryDy=0;exitX=1;exitY=0.5;exitDx=0;exitDy=0;" edge="1" parent="1" source="W849bkngyv2WaZQv473q-2" target="Dh2ZBIdu3O22om_tBgBo-148">
          <mxGeometry relative="1" as="geometry">
            <mxPoint x="710" y="960" as="sourcePoint" />
            <mxPoint x="735" y="986" as="targetPoint" />
          </mxGeometry>
        </mxCell>
        <mxCell id="Dh2ZBIdu3O22om_tBgBo-158" value="1" style="resizable=0;html=1;whiteSpace=wrap;align=right;verticalAlign=bottom;" connectable="0" vertex="1" parent="Dh2ZBIdu3O22om_tBgBo-157">
          <mxGeometry x="1" relative="1" as="geometry" />
        </mxCell>
        <mxCell id="Dh2ZBIdu3O22om_tBgBo-159" value="" style="endArrow=none;html=1;rounded=0;entryX=0.68;entryY=0.965;entryDx=0;entryDy=0;exitX=0;exitY=0;exitDx=0;exitDy=0;entryPerimeter=0;" edge="1" parent="1" source="W849bkngyv2WaZQv473q-2" target="Dh2ZBIdu3O22om_tBgBo-146">
          <mxGeometry relative="1" as="geometry">
            <mxPoint x="610" y="940" as="sourcePoint" />
            <mxPoint x="593" y="963" as="targetPoint" />
          </mxGeometry>
        </mxCell>
        <mxCell id="Dh2ZBIdu3O22om_tBgBo-160" value="1" style="resizable=0;html=1;whiteSpace=wrap;align=right;verticalAlign=bottom;" connectable="0" vertex="1" parent="Dh2ZBIdu3O22om_tBgBo-159">
          <mxGeometry x="1" relative="1" as="geometry" />
        </mxCell>
        <mxCell id="Dh2ZBIdu3O22om_tBgBo-161" value="Entity" style="whiteSpace=wrap;html=1;align=center;" vertex="1" parent="1">
          <mxGeometry x="600" y="1160" width="100" height="40" as="geometry" />
        </mxCell>
        <mxCell id="Dh2ZBIdu3O22om_tBgBo-162" value="Transaction" style="whiteSpace=wrap;html=1;align=center;" vertex="1" parent="1">
          <mxGeometry x="120" y="1160" width="100" height="40" as="geometry" />
        </mxCell>
        <mxCell id="Dh2ZBIdu3O22om_tBgBo-163" value="Payment Methods" style="whiteSpace=wrap;html=1;align=center;" vertex="1" parent="1">
          <mxGeometry x="120" y="890" width="100" height="40" as="geometry" />
        </mxCell>
        <mxCell id="Dh2ZBIdu3O22om_tBgBo-164" value="Payment Method ID" style="ellipse;whiteSpace=wrap;html=1;align=center;fontStyle=4;" vertex="1" parent="1">
          <mxGeometry x="20" y="820" width="100" height="40" as="geometry" />
        </mxCell>
        <mxCell id="Dh2ZBIdu3O22om_tBgBo-165" value="Type&amp;nbsp;" style="ellipse;whiteSpace=wrap;html=1;align=center;" vertex="1" parent="1">
          <mxGeometry x="-10" y="890" width="100" height="40" as="geometry" />
        </mxCell>
        <mxCell id="Dh2ZBIdu3O22om_tBgBo-167" value="Customer ID" style="ellipse;whiteSpace=wrap;html=1;align=center;dashed=1;" vertex="1" parent="1">
          <mxGeometry x="20" y="960" width="100" height="40" as="geometry" />
        </mxCell>
        <mxCell id="Dh2ZBIdu3O22om_tBgBo-168" value="" style="endArrow=none;html=1;rounded=0;entryX=0.788;entryY=0.913;entryDx=0;entryDy=0;exitX=0;exitY=0;exitDx=0;exitDy=0;entryPerimeter=0;" edge="1" parent="1" source="Dh2ZBIdu3O22om_tBgBo-163" target="Dh2ZBIdu3O22om_tBgBo-164">
          <mxGeometry relative="1" as="geometry">
            <mxPoint x="210" y="881" as="sourcePoint" />
            <mxPoint x="188" y="860" as="targetPoint" />
          </mxGeometry>
        </mxCell>
        <mxCell id="Dh2ZBIdu3O22om_tBgBo-169" value="1" style="resizable=0;html=1;whiteSpace=wrap;align=right;verticalAlign=bottom;" connectable="0" vertex="1" parent="Dh2ZBIdu3O22om_tBgBo-168">
          <mxGeometry x="1" relative="1" as="geometry" />
        </mxCell>
        <mxCell id="Dh2ZBIdu3O22om_tBgBo-170" value="" style="endArrow=none;html=1;rounded=0;entryX=1;entryY=0.5;entryDx=0;entryDy=0;exitX=0;exitY=0.5;exitDx=0;exitDy=0;" edge="1" parent="1" source="Dh2ZBIdu3O22om_tBgBo-163" target="Dh2ZBIdu3O22om_tBgBo-165">
          <mxGeometry relative="1" as="geometry">
            <mxPoint x="130" y="900" as="sourcePoint" />
            <mxPoint x="110" y="868" as="targetPoint" />
          </mxGeometry>
        </mxCell>
        <mxCell id="Dh2ZBIdu3O22om_tBgBo-171" value="1" style="resizable=0;html=1;whiteSpace=wrap;align=right;verticalAlign=bottom;" connectable="0" vertex="1" parent="Dh2ZBIdu3O22om_tBgBo-170">
          <mxGeometry x="1" relative="1" as="geometry" />
        </mxCell>
        <mxCell id="Dh2ZBIdu3O22om_tBgBo-172" value="" style="endArrow=none;html=1;rounded=0;entryX=0.7;entryY=0.032;entryDx=0;entryDy=0;entryPerimeter=0;" edge="1" parent="1" target="Dh2ZBIdu3O22om_tBgBo-167">
          <mxGeometry relative="1" as="geometry">
            <mxPoint x="120" y="930" as="sourcePoint" />
            <mxPoint x="120" y="878" as="targetPoint" />
          </mxGeometry>
        </mxCell>
        <mxCell id="Dh2ZBIdu3O22om_tBgBo-173" value="1" style="resizable=0;html=1;whiteSpace=wrap;align=right;verticalAlign=bottom;" connectable="0" vertex="1" parent="Dh2ZBIdu3O22om_tBgBo-172">
          <mxGeometry x="1" relative="1" as="geometry" />
        </mxCell>
        <mxCell id="Dh2ZBIdu3O22om_tBgBo-174" value="Transcation ID" style="ellipse;whiteSpace=wrap;html=1;align=center;fontStyle=4;" vertex="1" parent="1">
          <mxGeometry x="20" y="1100" width="100" height="40" as="geometry" />
        </mxCell>
        <mxCell id="Dh2ZBIdu3O22om_tBgBo-175" value="Order ID" style="ellipse;whiteSpace=wrap;html=1;align=center;dashed=1;" vertex="1" parent="1">
          <mxGeometry y="1160" width="100" height="40" as="geometry" />
        </mxCell>
        <mxCell id="Dh2ZBIdu3O22om_tBgBo-176" value="Payment Method&amp;nbsp;&lt;div&gt;ID&lt;/div&gt;" style="ellipse;whiteSpace=wrap;html=1;align=center;dashed=1;" vertex="1" parent="1">
          <mxGeometry x="20" y="1210" width="100" height="40" as="geometry" />
        </mxCell>
        <mxCell id="Dh2ZBIdu3O22om_tBgBo-177" value="Transaction&amp;nbsp;&lt;div&gt;Date&lt;/div&gt;" style="ellipse;whiteSpace=wrap;html=1;align=center;" vertex="1" parent="1">
          <mxGeometry x="120" y="1240" width="100" height="40" as="geometry" />
        </mxCell>
        <mxCell id="Dh2ZBIdu3O22om_tBgBo-178" value="Status" style="ellipse;whiteSpace=wrap;html=1;align=center;" vertex="1" parent="1">
          <mxGeometry x="230" y="1230" width="100" height="40" as="geometry" />
        </mxCell>
        <mxCell id="Dh2ZBIdu3O22om_tBgBo-179" value="" style="endArrow=none;html=1;rounded=0;entryX=1;entryY=0;entryDx=0;entryDy=0;exitX=0;exitY=1;exitDx=0;exitDy=0;" edge="1" parent="1" source="Dh2ZBIdu3O22om_tBgBo-162" target="Dh2ZBIdu3O22om_tBgBo-176">
          <mxGeometry relative="1" as="geometry">
            <mxPoint x="130" y="940" as="sourcePoint" />
            <mxPoint x="100" y="971" as="targetPoint" />
          </mxGeometry>
        </mxCell>
        <mxCell id="Dh2ZBIdu3O22om_tBgBo-180" value="1" style="resizable=0;html=1;whiteSpace=wrap;align=right;verticalAlign=bottom;" connectable="0" vertex="1" parent="Dh2ZBIdu3O22om_tBgBo-179">
          <mxGeometry x="1" relative="1" as="geometry" />
        </mxCell>
        <mxCell id="Dh2ZBIdu3O22om_tBgBo-181" value="" style="endArrow=none;html=1;rounded=0;entryX=0.5;entryY=0;entryDx=0;entryDy=0;exitX=0.5;exitY=1;exitDx=0;exitDy=0;" edge="1" parent="1" source="Dh2ZBIdu3O22om_tBgBo-162" target="Dh2ZBIdu3O22om_tBgBo-177">
          <mxGeometry relative="1" as="geometry">
            <mxPoint x="130" y="1210" as="sourcePoint" />
            <mxPoint x="115" y="1226" as="targetPoint" />
          </mxGeometry>
        </mxCell>
        <mxCell id="Dh2ZBIdu3O22om_tBgBo-182" value="1" style="resizable=0;html=1;whiteSpace=wrap;align=right;verticalAlign=bottom;" connectable="0" vertex="1" parent="Dh2ZBIdu3O22om_tBgBo-181">
          <mxGeometry x="1" relative="1" as="geometry" />
        </mxCell>
        <mxCell id="Dh2ZBIdu3O22om_tBgBo-183" value="" style="endArrow=none;html=1;rounded=0;entryX=0;entryY=0;entryDx=0;entryDy=0;exitX=1;exitY=1;exitDx=0;exitDy=0;" edge="1" parent="1" source="Dh2ZBIdu3O22om_tBgBo-162" target="Dh2ZBIdu3O22om_tBgBo-178">
          <mxGeometry relative="1" as="geometry">
            <mxPoint x="180" y="1210" as="sourcePoint" />
            <mxPoint x="180" y="1250" as="targetPoint" />
          </mxGeometry>
        </mxCell>
        <mxCell id="Dh2ZBIdu3O22om_tBgBo-184" value="1" style="resizable=0;html=1;whiteSpace=wrap;align=right;verticalAlign=bottom;" connectable="0" vertex="1" parent="Dh2ZBIdu3O22om_tBgBo-183">
          <mxGeometry x="1" relative="1" as="geometry" />
        </mxCell>
        <mxCell id="Dh2ZBIdu3O22om_tBgBo-185" value="" style="endArrow=none;html=1;rounded=0;entryX=1;entryY=1;entryDx=0;entryDy=0;exitX=0;exitY=0;exitDx=0;exitDy=0;" edge="1" parent="1" source="Dh2ZBIdu3O22om_tBgBo-162" target="Dh2ZBIdu3O22om_tBgBo-174">
          <mxGeometry relative="1" as="geometry">
            <mxPoint x="230" y="1210" as="sourcePoint" />
            <mxPoint x="255" y="1246" as="targetPoint" />
          </mxGeometry>
        </mxCell>
        <mxCell id="Dh2ZBIdu3O22om_tBgBo-186" value="1" style="resizable=0;html=1;whiteSpace=wrap;align=right;verticalAlign=bottom;" connectable="0" vertex="1" parent="Dh2ZBIdu3O22om_tBgBo-185">
          <mxGeometry x="1" relative="1" as="geometry" />
        </mxCell>
        <mxCell id="Dh2ZBIdu3O22om_tBgBo-187" value="" style="endArrow=none;html=1;rounded=0;entryX=0.997;entryY=0.542;entryDx=0;entryDy=0;exitX=0;exitY=0.5;exitDx=0;exitDy=0;entryPerimeter=0;" edge="1" parent="1" source="Dh2ZBIdu3O22om_tBgBo-162" target="Dh2ZBIdu3O22om_tBgBo-175">
          <mxGeometry relative="1" as="geometry">
            <mxPoint x="130" y="1210" as="sourcePoint" />
            <mxPoint x="115" y="1226" as="targetPoint" />
          </mxGeometry>
        </mxCell>
        <mxCell id="Dh2ZBIdu3O22om_tBgBo-188" value="1" style="resizable=0;html=1;whiteSpace=wrap;align=right;verticalAlign=bottom;" connectable="0" vertex="1" parent="Dh2ZBIdu3O22om_tBgBo-187">
          <mxGeometry x="1" relative="1" as="geometry" />
        </mxCell>
        <mxCell id="Dh2ZBIdu3O22om_tBgBo-189" value="Payment ID" style="ellipse;whiteSpace=wrap;html=1;align=center;fontStyle=4;" vertex="1" parent="1">
          <mxGeometry x="700" y="1090" width="100" height="40" as="geometry" />
        </mxCell>
        <mxCell id="Dh2ZBIdu3O22om_tBgBo-190" value="Transaction ID" style="ellipse;whiteSpace=wrap;html=1;align=center;dashed=1;" vertex="1" parent="1">
          <mxGeometry x="720" y="1160" width="100" height="40" as="geometry" />
        </mxCell>
        <mxCell id="Dh2ZBIdu3O22om_tBgBo-191" value="Payment Date" style="ellipse;whiteSpace=wrap;html=1;align=center;" vertex="1" parent="1">
          <mxGeometry x="700" y="1220" width="100" height="40" as="geometry" />
        </mxCell>
        <mxCell id="Dh2ZBIdu3O22om_tBgBo-192" value="Status" style="ellipse;whiteSpace=wrap;html=1;align=center;" vertex="1" parent="1">
          <mxGeometry x="590" y="1230" width="100" height="40" as="geometry" />
        </mxCell>
        <mxCell id="Dh2ZBIdu3O22om_tBgBo-193" value="Amount" style="ellipse;whiteSpace=wrap;html=1;align=center;" vertex="1" parent="1">
          <mxGeometry x="580" y="1090" width="100" height="40" as="geometry" />
        </mxCell>
        <mxCell id="Dh2ZBIdu3O22om_tBgBo-194" value="" style="endArrow=none;html=1;rounded=0;entryX=0.5;entryY=1;entryDx=0;entryDy=0;exitX=0.308;exitY=-0.013;exitDx=0;exitDy=0;exitPerimeter=0;" edge="1" parent="1" source="Dh2ZBIdu3O22om_tBgBo-161" target="Dh2ZBIdu3O22om_tBgBo-193">
          <mxGeometry relative="1" as="geometry">
            <mxPoint x="230" y="1210" as="sourcePoint" />
            <mxPoint x="255" y="1246" as="targetPoint" />
          </mxGeometry>
        </mxCell>
        <mxCell id="Dh2ZBIdu3O22om_tBgBo-195" value="1" style="resizable=0;html=1;whiteSpace=wrap;align=right;verticalAlign=bottom;" connectable="0" vertex="1" parent="Dh2ZBIdu3O22om_tBgBo-194">
          <mxGeometry x="1" relative="1" as="geometry" />
        </mxCell>
        <mxCell id="Dh2ZBIdu3O22om_tBgBo-196" value="" style="endArrow=none;html=1;rounded=0;" edge="1" parent="1" target="Dh2ZBIdu3O22om_tBgBo-192">
          <mxGeometry relative="1" as="geometry">
            <mxPoint x="640" y="1201" as="sourcePoint" />
            <mxPoint x="640" y="1140" as="targetPoint" />
          </mxGeometry>
        </mxCell>
        <mxCell id="Dh2ZBIdu3O22om_tBgBo-197" value="1" style="resizable=0;html=1;whiteSpace=wrap;align=right;verticalAlign=bottom;" connectable="0" vertex="1" parent="Dh2ZBIdu3O22om_tBgBo-196">
          <mxGeometry x="1" relative="1" as="geometry" />
        </mxCell>
        <mxCell id="Dh2ZBIdu3O22om_tBgBo-198" value="" style="endArrow=none;html=1;rounded=0;entryX=0;entryY=1;entryDx=0;entryDy=0;exitX=1;exitY=0;exitDx=0;exitDy=0;" edge="1" parent="1" source="Dh2ZBIdu3O22om_tBgBo-161" target="Dh2ZBIdu3O22om_tBgBo-189">
          <mxGeometry relative="1" as="geometry">
            <mxPoint x="645" y="1180" as="sourcePoint" />
            <mxPoint x="650" y="1150" as="targetPoint" />
          </mxGeometry>
        </mxCell>
        <mxCell id="Dh2ZBIdu3O22om_tBgBo-199" value="1" style="resizable=0;html=1;whiteSpace=wrap;align=right;verticalAlign=bottom;" connectable="0" vertex="1" parent="Dh2ZBIdu3O22om_tBgBo-198">
          <mxGeometry x="1" relative="1" as="geometry" />
        </mxCell>
        <mxCell id="Dh2ZBIdu3O22om_tBgBo-201" value="" style="endArrow=none;html=1;rounded=0;exitX=1;exitY=0.5;exitDx=0;exitDy=0;entryX=0;entryY=0.5;entryDx=0;entryDy=0;" edge="1" parent="1" source="Dh2ZBIdu3O22om_tBgBo-161" target="Dh2ZBIdu3O22om_tBgBo-190">
          <mxGeometry relative="1" as="geometry">
            <mxPoint x="650" y="1211" as="sourcePoint" />
            <mxPoint x="650" y="1240" as="targetPoint" />
          </mxGeometry>
        </mxCell>
        <mxCell id="Dh2ZBIdu3O22om_tBgBo-202" value="1" style="resizable=0;html=1;whiteSpace=wrap;align=right;verticalAlign=bottom;" connectable="0" vertex="1" parent="Dh2ZBIdu3O22om_tBgBo-201">
          <mxGeometry x="1" relative="1" as="geometry" />
        </mxCell>
        <mxCell id="Dh2ZBIdu3O22om_tBgBo-203" value="" style="endArrow=none;html=1;rounded=0;exitX=0.858;exitY=0.984;exitDx=0;exitDy=0;exitPerimeter=0;entryX=0.025;entryY=0.228;entryDx=0;entryDy=0;entryPerimeter=0;" edge="1" parent="1" source="Dh2ZBIdu3O22om_tBgBo-161" target="Dh2ZBIdu3O22om_tBgBo-191">
          <mxGeometry relative="1" as="geometry">
            <mxPoint x="660" y="1221" as="sourcePoint" />
            <mxPoint x="660" y="1250" as="targetPoint" />
          </mxGeometry>
        </mxCell>
        <mxCell id="Dh2ZBIdu3O22om_tBgBo-204" value="1" style="resizable=0;html=1;whiteSpace=wrap;align=right;verticalAlign=bottom;" connectable="0" vertex="1" parent="Dh2ZBIdu3O22om_tBgBo-203">
          <mxGeometry x="1" relative="1" as="geometry" />
        </mxCell>
        <mxCell id="Dh2ZBIdu3O22om_tBgBo-206" value="Relationship" style="shape=rhombus;double=1;perimeter=rhombusPerimeter;whiteSpace=wrap;html=1;align=center;" vertex="1" parent="1">
          <mxGeometry x="330" y="-105" width="120" height="60" as="geometry" />
        </mxCell>
        <mxCell id="Dh2ZBIdu3O22om_tBgBo-207" value="" style="edgeStyle=entityRelationEdgeStyle;fontSize=12;html=1;endArrow=ERmandOne;startArrow=ERmandOne;rounded=0;exitX=1;exitY=0.5;exitDx=0;exitDy=0;" edge="1" parent="1" source="Dh2ZBIdu3O22om_tBgBo-206">
          <mxGeometry width="100" height="100" relative="1" as="geometry">
            <mxPoint x="530" y="160" as="sourcePoint" />
            <mxPoint x="610" y="-70" as="targetPoint" />
          </mxGeometry>
        </mxCell>
        <mxCell id="Dh2ZBIdu3O22om_tBgBo-208" value="" style="edgeStyle=entityRelationEdgeStyle;fontSize=12;html=1;endArrow=ERmandOne;startArrow=ERmandOne;rounded=0;exitX=1;exitY=0.5;exitDx=0;exitDy=0;" edge="1" parent="1" target="Dh2ZBIdu3O22om_tBgBo-206">
          <mxGeometry width="100" height="100" relative="1" as="geometry">
            <mxPoint x="230" y="-90" as="sourcePoint" />
            <mxPoint x="390" y="-85" as="targetPoint" />
          </mxGeometry>
        </mxCell>
        <mxCell id="Dh2ZBIdu3O22om_tBgBo-209" value="Relationship" style="shape=rhombus;double=1;perimeter=rhombusPerimeter;whiteSpace=wrap;html=1;align=center;" vertex="1" parent="1">
          <mxGeometry x="330" y="135" width="120" height="60" as="geometry" />
        </mxCell>
        <mxCell id="Dh2ZBIdu3O22om_tBgBo-210" value="" style="edgeStyle=entityRelationEdgeStyle;fontSize=12;html=1;endArrow=ERzeroToMany;startArrow=ERmandOne;rounded=0;entryX=1;entryY=0.5;entryDx=0;entryDy=0;exitX=0;exitY=0.5;exitDx=0;exitDy=0;" edge="1" parent="1" source="Dh2ZBIdu3O22om_tBgBo-2" target="Dh2ZBIdu3O22om_tBgBo-209">
          <mxGeometry width="100" height="100" relative="1" as="geometry">
            <mxPoint x="480" y="230" as="sourcePoint" />
            <mxPoint x="580" y="130" as="targetPoint" />
          </mxGeometry>
        </mxCell>
        <mxCell id="Dh2ZBIdu3O22om_tBgBo-212" value="" style="edgeStyle=entityRelationEdgeStyle;fontSize=12;html=1;endArrow=ERoneToMany;rounded=0;exitX=0;exitY=0.5;exitDx=0;exitDy=0;entryX=1;entryY=0.5;entryDx=0;entryDy=0;" edge="1" parent="1" source="Dh2ZBIdu3O22om_tBgBo-209" target="Dh2ZBIdu3O22om_tBgBo-24">
          <mxGeometry width="100" height="100" relative="1" as="geometry">
            <mxPoint x="480" y="230" as="sourcePoint" />
            <mxPoint x="580" y="130" as="targetPoint" />
          </mxGeometry>
        </mxCell>
        <mxCell id="Dh2ZBIdu3O22om_tBgBo-213" value="Relationship" style="shape=rhombus;double=1;perimeter=rhombusPerimeter;whiteSpace=wrap;html=1;align=center;" vertex="1" parent="1">
          <mxGeometry x="310" y="330" width="120" height="60" as="geometry" />
        </mxCell>
        <mxCell id="Dh2ZBIdu3O22om_tBgBo-215" value="" style="edgeStyle=entityRelationEdgeStyle;fontSize=12;html=1;endArrow=ERoneToMany;rounded=0;entryX=1;entryY=0.5;entryDx=0;entryDy=0;exitX=0;exitY=0.5;exitDx=0;exitDy=0;" edge="1" parent="1" source="Dh2ZBIdu3O22om_tBgBo-42" target="Dh2ZBIdu3O22om_tBgBo-213">
          <mxGeometry width="100" height="100" relative="1" as="geometry">
            <mxPoint x="230" y="340" as="sourcePoint" />
            <mxPoint x="330" y="240" as="targetPoint" />
            <Array as="points">
              <mxPoint x="460" y="415" />
              <mxPoint x="450" y="410" />
              <mxPoint x="460" y="410" />
            </Array>
          </mxGeometry>
        </mxCell>
        <mxCell id="Dh2ZBIdu3O22om_tBgBo-216" value="" style="edgeStyle=entityRelationEdgeStyle;fontSize=12;html=1;endArrow=ERoneToMany;rounded=0;entryX=1;entryY=0.5;entryDx=0;entryDy=0;exitX=0;exitY=0.5;exitDx=0;exitDy=0;" edge="1" parent="1" source="Dh2ZBIdu3O22om_tBgBo-213" target="Dh2ZBIdu3O22om_tBgBo-64">
          <mxGeometry width="100" height="100" relative="1" as="geometry">
            <mxPoint x="610" y="425" as="sourcePoint" />
            <mxPoint x="440" y="370" as="targetPoint" />
            <Array as="points">
              <mxPoint x="470" y="425" />
              <mxPoint x="460" y="420" />
              <mxPoint x="470" y="420" />
            </Array>
          </mxGeometry>
        </mxCell>
        <mxCell id="Dh2ZBIdu3O22om_tBgBo-217" value="Relationship" style="shape=rhombus;perimeter=rhombusPerimeter;whiteSpace=wrap;html=1;align=center;" vertex="1" parent="1">
          <mxGeometry x="360" y="490" width="120" height="60" as="geometry" />
        </mxCell>
        <mxCell id="Dh2ZBIdu3O22om_tBgBo-218" value="" style="edgeStyle=entityRelationEdgeStyle;fontSize=12;html=1;endArrow=ERzeroToMany;endFill=1;startArrow=ERzeroToMany;rounded=0;exitX=1;exitY=0.5;exitDx=0;exitDy=0;" edge="1" parent="1" source="Dh2ZBIdu3O22om_tBgBo-217">
          <mxGeometry width="100" height="100" relative="1" as="geometry">
            <mxPoint x="130" y="660" as="sourcePoint" />
            <mxPoint x="600" y="440" as="targetPoint" />
          </mxGeometry>
        </mxCell>
        <mxCell id="Dh2ZBIdu3O22om_tBgBo-219" value="" style="edgeStyle=entityRelationEdgeStyle;fontSize=12;html=1;endArrow=ERzeroToMany;endFill=1;startArrow=ERzeroToMany;rounded=0;exitX=1;exitY=0.25;exitDx=0;exitDy=0;entryX=0;entryY=0.5;entryDx=0;entryDy=0;" edge="1" parent="1" source="W849bkngyv2WaZQv473q-4" target="Dh2ZBIdu3O22om_tBgBo-217">
          <mxGeometry width="100" height="100" relative="1" as="geometry">
            <mxPoint x="490" y="530" as="sourcePoint" />
            <mxPoint x="610" y="450" as="targetPoint" />
          </mxGeometry>
        </mxCell>
      </root>
    </mxGraphModel>
  </diagram>
</mxfile>
